<?xml version="1.0" encoding="utf-8"?><svg viewBox="0 0 1920 1672" xmlns="http://www.w3.org/2000/svg" xmlns:xlink="http://www.w3.org/1999/xlink"><style>:root>svg{display:none}:root>svg:target{display:block}</style><svg viewBox="0 0 16 16" id="chevron-down" xmlns="http://www.w3.org/2000/svg"><path fill-rule="evenodd" d="M1.646 4.646a.5.5 0 01.708 0L8 10.293l5.646-5.647a.5.5 0 01.708.708l-6 6a.5.5 0 01-.708 0l-6-6a.5.5 0 010-.708z"/></svg><svg fill="none" viewBox="0 0 59 59" id="closed" xmlns="http://www.w3.org/2000/svg"><path d="M44.25 14.75l-29.5 29.5M14.75 14.75l29.5 29.5" stroke="#000" stroke-width="2" stroke-linecap="round" stroke-linejoin="round"/></svg><svg preserveAspectRatio="none" fill="none" viewBox="0 0 1918 583" id="contacts" xmlns="http://www.w3.org/2000/svg"><path fill-rule="evenodd" clip-rule="evenodd" d="M-.5 267.354l-.23-55.959V8.996a37.384 37.384 0 010-5.867C-.193-.001 1.418-.678 5.64.678 31.041 8.814 56.904 16.323 79.313 28.24c12.05 6.415 24.367 12.673 37.145 18.253 23.505 10.162 49.243 17.714 76.245 22.373 51.803 9.596 102.301 21.877 152.914 33.898 15.349 3.651 31.005 6.754 46.507 10.144 18.019 3.872 35.109 9.512 50.729 16.74 34.535 16.089 73.137 25.424 112.738 33.429 24.174 4.902 48.31 9.848 72.408 14.837 16.153 3.484 31.83 7.916 46.853 13.247 9.248 3.181 16.346 8.266 24.366 12.516 2.458 1.254 4.373 2.936 5.541 4.869 1.169 1.932 1.548 4.042 1.098 6.109-2.072 21.147 2.34 42.399-1.689 63.494-2.149 11.161-2.456 22.451-4.911 33.586-7.099 31.864-23.024 62.19-35.226 93.142-2.765 7.58-6.37 15.006-10.783 22.216-.92 2.319-2.91 4.375-5.679 5.867-8.557.6-16.193-2.086-24.021-3.572-76.745-14.654-154.372-28.136-230.464-44.772-57.108-12.761-112.346-29.102-165.001-48.814-33.423-12.385-68.61-22.268-103.606-32.255-36.261-10.43-73.29-19.426-108.44-31.447-5.525-1.747-12.394-1.122-16.538-4.746z" fill="#62C1C5"/><path fill-rule="evenodd" clip-rule="evenodd" d="M1159.88 212.804c7.29-5.216 16.92-7.536 26.86-9.336a472.448 472.448 0 0144.4-4.615c28.08-2.774 55.94-6.534 83.46-11.265a28892.386 28892.386 0 01306.97-46.779c67.92-10.039 135.92-19.922 204.03-29.283 24.98-3.442 50.15-6.311 75.29-9.231 16.34-1.904 16.69-1.565 16.69 9.439 0 45.972 0 91.943-.35 137.888 0 12.778-1.26 25.581-.65 38.358 1.88 41.199.58 82.373.92 123.572 0 2.243 1.5 4.772-1.53 6.754-3.84-2.608-2.8-6.076-2.8-9.257v-63.077c0-8.996-3.84-11.004-15.35-6.832-25.78 8.619-52.31 16.169-79.43 22.608-39.44 10.389-81.38 15.694-123.68 15.645-26.17-.13-52.45.73-78.59-.208-34.26-1.226-66.76 3.546-98.69 10.899-41.1 9.492-82.69 18.097-123.37 28.475-16.53 4.224-33.96 3.911-51.07 4.381-9.09.26-12.74-3.338-14.39-11.422.01-.702.14-1.402.38-2.086 1.25-2.519 1.5-5.216.73-7.822.23-4.773 1.42-9.501 3.53-14.055 14.89-32.647 6.72-63.755-13.43-94.081-11.04-16.116-23.71-31.694-37.91-46.623-8.62-9.401-19.59-17.705-32.42-24.538-8.18-4.579-17.95-7.659-28.37-8.946-10.43-1.287-21.16-.739-31.19 1.593-6.4 1.33-12.7 2.973-19.18 4.198-5.22.365-10.9 1.33-10.86-4.354z" fill="#000"/><path fill-rule="evenodd" clip-rule="evenodd" d="M749.524 219.035a87.125 87.125 0 0112.548-2.946c17.037-2.373 32.194-8.005 47.735-13.038 21.128-7.062 42.845-13.279 65.041-18.618 17.982-3.832 37.105-4.488 55.563-1.903 8.052.824 15.735 2.852 22.496 5.936 6.761 3.084 12.432 7.148 16.606 11.899 2.417 2.608 4.643 5.215 10.168 4.772 0 2.895-4.067 3.025-6.715 3.885-26.134 8.415-47.64 22.271-61.396 39.557-11.703 14.394-24.942 28.188-35.494 43.025-3.173 4.249-4.985 8.908-5.316 13.667-.33 4.76.827 9.514 3.397 13.947 6.984 8.266 18.918 9.726 31.235 10.222 12.843.125 25.558-1.739 37.183-5.45 17.357-4.568 33.157-11.498 46.431-20.365 7.329-5.215 15.574-9.596 23.404-14.342 14.66-8.918 34.54-11.056 50.69-4.38 28.55 11.89 56.95 23.911 87.72 33.116 15.81 6.264 28.84 15.308 37.72 26.18 14.51 15.784 32.44 29.99 53.19 42.138 2.88 1.372 5.46 3.014 7.67 4.876 2.53 6.363 8.37 11.63 13.01 17.21 10.09 12.307 15.93 26.012 17.07 40.078 3.84 15.203-7.67 26.076-23.02 35.489a131.257 131.257 0 00-16.15 5.502c-3.33 1.554-7.08 2.647-11.03 3.215-3.95.568-8.03.601-12 .097-9.67-1.278-15.35.834-18.57 6.858-.42.808-1.57 1.33-2.42 1.982-2.45 2.607-4.68 5.215-7.33 7.588-3.8 3.768-8.9 6.851-14.85 8.982-5.95 2.13-12.57 3.245-19.3 3.247h-13.39c-8.4.157-9.86.887-12.2 6.232-2.09 5.463-5.9 10.553-11.17 14.916-13.24 10.43-30.35 13.037-49.38 10.43a29.487 29.487 0 00-9.57.251c-3.11.604-5.96 1.707-8.31 3.217-16.43 8.37-31.93 18.123-53.151 21.121-4.066.481-8.191.69-12.317.626 6.523-5.815 15.348-10.065 22.638-15.306.65-.47 1.5-.783 2.23-1.226 10.43-6.336 18.49-13.794 14.96-23.755-3.53-9.961-15-14.55-28.854-16.793-.922-.184-1.82-.42-2.686-.704-1.54-.717-2.775-1.697-3.583-2.841-.809-1.144-1.161-2.412-1.021-3.678-3.262-23.077-25.748-33.037-58.48-25.893l-1.803.444a13.674 13.674 0 01-4.308.88 14.326 14.326 0 01-4.441-.489c-1.468-.851-2.514-1.99-2.993-3.26-7.022-17.888-33.231-22.112-52.455-19.348-14.792 2.013-29.339 4.785-43.514 8.292-3.569.652-7.061 1.721-10.821.496-3.147-1.747-1.574-3.964-1.151-5.998.845-2.855.763-5.802-.242-8.634-1.005-2.831-2.908-5.48-5.576-7.76-2.668-2.279-6.036-4.136-9.87-5.439-3.833-1.303-8.04-2.021-12.324-2.104a141.817 141.817 0 00-23.753.965 223.356 223.356 0 01-55.026 0c-6.139-.783-12.547-1.695-16.653-5.581.767-8.709 8.02-15.88 13.123-23.468 26.093-38.722 40.982-79.322 48.656-121.512a204.122 204.122 0 00-.115-66.572c-.614-3.337-1.612-6.936 2.264-9.935z" fill="#F6B58D"/><path fill-rule="evenodd" clip-rule="evenodd" d="M-.501 267.354c15.003.99 27.36 6.805 40.674 10.717 17.843 5.215 35.878 10.117 53.722 15.228 28.126 8.057 56.522 15.645 84.419 24.224 24.213 7.327 47.351 15.985 70.95 24.094 40.324 13.91 81.841 26.161 124.326 36.689 34.727 8.578 70.222 15.28 105.793 21.877 24.251 4.459 48.272 9.413 72.409 14.055 26.592 5.215 52.953 10.795 80.006 14.654 4.995.773 9.793 2.047 14.236 3.781 2.264 2.086.806 4.199 0 6.206-4.535 10.371-10.257 20.484-17.114 30.248-3.351 4.152-6.089 8.519-8.173 13.038-5.142 8.866-10.016 17.836-18.496 25.606-10.591 9.7-20.529 12.543-37.336 9.075-77.896-16.063-157.71-27.406-235.414-43.912-8.864-1.877-17.882-3.442-26.439-5.789-27.935-7.666-57.021-12.62-86.146-17.575-29.738-5.058-58.863-11.525-88.256-17.888-15.579-3.363-29.854-8.813-44.934-13.037-20.116-5.551-41.27-9.176-62.854-10.77-5.065-.391-10.092-1.121-15.157-1.486-5.065-.365-7.29-2.216-6.715-5.658a7.098 7.098 0 000-1.278V271.891c0-1.513.384-3.025.499-4.537z" fill="#54A5A9"/><path fill-rule="evenodd" clip-rule="evenodd" d="M1196.56 501.514c.16-2.593 1.38-5.104 3.53-7.249 3.38-4.277 4.91-4.668 12.24-3.651 5.08.863 10.37.963 15.5.292 5.14-.672 10-2.097 14.24-4.177 3.94-2.203 8.87-3.435 13.97-3.494 4.75-2.888 10.09-5.294 15.85-7.145 6.02-1.982 12.01-3.99 17.92-6.102 25.94-9.23 36.68-24.302 36.57-43.598 0-4.329-.23-8.657 0-13.038.23-2.216-.66-5.007 4.18-5.763.2 1.75.55 3.491 1.03 5.215.28 1.117.9 2.182 1.82 3.125.93.943 2.13 1.743 3.54 2.348 1.41.605 2.99 1.002 4.64 1.164 1.65.163 3.33.087 4.93-.222 3.71-.617 7.51-.915 11.32-.887 14.04.277 28-1.502 40.94-5.215 17.46-4.824 35.54-8.318 53.46-12.151 20.99-4.511 41.55-9.804 62.47-14.472a681.733 681.733 0 0161.78-10.952c2.85-.239 5.72-.309 8.59-.208 35.19 0 70.38-.209 105.53 0 44.67.378 89-5.249 130.46-16.558 15.97-4.329 32.39-7.823 48.31-12.308 8.21-2.269 15.81-5.58 23.76-8.344 4.69-1.84 9.94-2.928 15.34-3.182 4.61 0 7.33 1.2 7.33 4.538v78.748c-22.05 6.228-44.92 11.021-68.3 14.316-73.48 9.961-147.23 18.852-221.02 27.666a98546.782 98546.782 0 00-200.54 24.146 281.786 281.786 0 01-35.22 1.877c-35.11.037-70.14 2.342-104.61 6.884-16.61 2.06-33.19 4.251-49.88 6.154-12.89 1.591-26.32 1.591-39.68 2.243z" fill="#404040"/><path fill-rule="evenodd" clip-rule="evenodd" d="M1248.33 391.135c-9.98-3.347-18.64-8.264-25.25-14.342-6.45-5.632-14.51-10.221-20.72-16.01-5.37-4.517-10.31-9.264-14.78-14.211-8.49-11.138-21.33-20.474-37.1-26.989-.19-.409-.51-.788-.92-1.111a4.911 4.911 0 00-1.5-.766c-27.94-7.197-49.69-20.861-73.87-32.047-9-4.148-19.4-6.685-30.23-7.38-14.47-1.069-25.94 2.608-36.07 9.44-16.061 11.192-34.29 20.842-54.187 28.683-17.574 6.675-35.954 11.03-56.484 10.065-9.478-.443-18.342-1.695-24.942-6.832-2.832-4.109-4.3-8.591-4.3-13.129 0-4.537 1.468-9.019 4.3-13.129 10.252-14.407 21.679-28.414 34.228-41.955 6.032-7.611 13.208-14.777 21.412-21.383 13.312-10.184 29.823-18.204 48.311-23.468 1.151-.339 2.187-.808 3.262-1.199 14.166-5.451 29.09-9.94 44.55-13.403 20.84-4.824 41.6-3.233 61.78 1.93s40.25 9.778 59.28 16.479c4.45 1.737 9.5 2.637 14.62 2.608 1.69 3.546 5.41 3.755 9.87 2.764 25.28 4.726 49.07 12.575 70.18 23.155 13.92 7.049 24.68 16.593 31.08 27.562 14.27 24.69 19.48 51.367 15.2 77.732-2.04 14.55-6.57 28.266-20.26 39.922-4.34 3.624-8.41 8.318-17.46 7.014z" fill="#E59F7E"/><path fill-rule="evenodd" clip-rule="evenodd" d="M628.767 469.127c1.332-5.695 3.838-11.234 7.444-16.454 3.888-6.522 7.181-13.202 9.862-20 5.439-6.359 9.461-13.23 11.933-20.391 11.282-26.362 22.717-52.699 32.54-79.348 3.695-10.507 6.26-21.183 7.674-31.943a211.477 211.477 0 014.912-30.274 33.417 33.417 0 000-17.497 49.331 49.331 0 010-19.974c1.573-9.908 2.226-19.921-3.837-29.491a209.813 209.813 0 0128.472 4.537c8.782 1.873 16.423 5.646 21.757 10.743 0 11.056 2.456 21.982 3.262 32.96a105.774 105.774 0 01-.729 31.108c-2.111 9.596-3.147 19.296-4.49 28.97-2.099 10.266-5.266 20.417-9.478 30.378-6.523 18.253-13.737 36.506-23.023 54.16-5.487 10.691-14.466 20.26-20.414 30.795-2.533 4.433-5.641 8.709-8.48 13.038-6.986 11.711-19.026 21.711-34.535 28.683h-22.87z" fill="#E8E8E8"/><path fill-rule="evenodd" clip-rule="evenodd" d="M820.168 473.117c4.736-1.878 9.938-3.15 15.349-3.755a727.096 727.096 0 0020.222-3.651c13.979-3.235 29.265-2.627 42.593 1.695 5.234 1.575 9.83 3.987 13.398 7.028 3.567 3.042 6.001 6.625 7.093 10.443.384 1.278 1.036 2.477 1.535 3.729 2.801 2.972-.806 4.928-2.801 6.91-11.243 11.265-26.861 19.504-42.21 28.031-18.342 10.17-39.869 16.141-61.396 22.191l-1.343.286c-1.69-.994-3.866-1.524-6.101-1.486-19.485-.529-38.384-4.678-54.642-11.995-5.667-2.23-10.441-5.372-13.9-9.151-3.46-3.779-5.499-8.077-5.939-12.518l1.113-.521c14.39.182 26.247-4.537 37.95-9.205 18.82-7.152 35.473-16.664 49.079-28.031z" fill="#E59F7E"/><path fill-rule="evenodd" clip-rule="evenodd" d="M651.675 469.075c6.523-6.362 15.848-10.978 23.024-17.106 4.259-3.702 5.986-8.552 11.78-11.473 21.066 6.78 43.13 5.998 65.233 4.068a285.361 285.361 0 0128.434-1.591c14.965.209 23.982 6.285 31.12 13.977 3.3 3.546 1.841 7.823.69 11.995-.499 1.799-3.031 3.442-.921 5.423.538 1.852-1.496 2.764-3.146 3.677-21.956 12.129-45.678 22.701-70.797 31.552-1.458.495-3.031.652-4.528 1.043l-.576.287c-8.825-1.043-17.612 1.486-26.553 0-21.642-3.677-39.447-10.744-49.884-24.772-3.569-5.345-4.91-11.253-3.876-17.08zM927.956 487.25c15.848-5.946 39.677-3.416 50.997 4.302 3.969 2.481 7.125 5.502 9.261 8.868 2.135 3.365 3.203 6.998 3.133 10.663 0 3.129-1.266 6.571 3.837 8.683-6.546 3.047-12.403 6.728-17.382 10.926-20.287 14.821-45.495 26.131-73.522 32.985-7.482 1.852-14.428 4.616-22.371 5.633-3.603-.871-7.425-1.243-11.243-1.095-16.028-.607-31.469-4.307-44.512-10.665-6.143-2.795-10.883-6.798-13.584-11.474l.614-.391c9.248-2.321 19.186-2.347 28.473-5.215 27.896-8.37 52.57-19.478 71.717-35.88 6.255-5.267 9.824-11.499 14.582-17.34z" fill="#E59F7E"/><path fill-rule="evenodd" clip-rule="evenodd" d="M996.988 519.871c7.412.692 14.352 2.855 19.952 6.218 5.61 3.364 9.63 7.777 11.55 12.687.99 3.815.2 7.745-2.26 11.239-2.92 5.279-8.02 9.871-14.7 13.22-4.91 2.779-9.56 5.776-13.89 8.97-3.332 2.586-7.441 4.658-12.049 6.076-19.186 3.52-38.564 5.919-58.326 4.093-14.735-1.382-29.47-3.52-41.288-10.43 5.794-3.364 13.315-3.937 20.107-5.554 31.158-7.405 58.709-18.435 80.351-35.697 4.145-3.416 6.409-7.484 10.553-10.822z" fill="#E59F7E"/><path fill-rule="evenodd" clip-rule="evenodd" d="M996.988 519.871c.089 2.624-1.281 5.176-3.838 7.144-10.706 11.03-25.517 19.14-41.48 26.311-18.994 8.579-40.291 13.794-61.971 18.253a22.73 22.73 0 01-3.838.208c-1.705-.576-3.121-1.484-4.067-2.607 3.223-3.494 9.171-3.703 14.006-5.007 18.342-5.032 36.492-10.195 52.608-18.253 13.088-6.559 25.035-14.108 35.61-22.503 1.184-1.243 2.829-2.251 4.769-2.924s4.107-.987 6.282-.909l1.919.287z" fill="#C07C5C"/><path fill-rule="evenodd" clip-rule="evenodd" d="M1248.33 391.136c6.13-1.279 11.44-3.948 15.04-7.562 10.88-9.661 17.53-21.212 19.18-33.325 1.7-9.445 2.37-18.963 2-28.475-.25-18.633-5.47-37.082-15.43-54.446-9.4-15.1-26.27-27.494-47.69-35.045-14.58-5.424-29.05-10.848-45.59-13.247-2.57-.391-5.91-.678-6.06-3.338a262.365 262.365 0 0130.27-6.232c14.54-1.888 29.59-.028 42.21 5.216 12.76 5.033 23.8 11.85 32.39 20 25.63 25.215 48.39 51.525 61.4 81.173 9.24 20.16 10.11 41.662 2.53 62.139-2.9 7.305-5.2 14.713-6.91 22.19.35.943.26 1.938-.27 2.842-5.29 6.606-9.7 13.517-13.2 20.652-2.16 5.204-6.02 10.007-11.31 14.049-5.28 4.042-11.84 7.218-19.19 9.289-1.45.669-3.1 1.105-4.82 1.277-1.73.172-3.5.074-5.16-.286-3.42-4.407-1.69-9.335-3.19-13.951-3.83-11.525-11.51-21.773-20.1-31.89-2.04-2.425-4.11-4.85-6.45-7.145-1.88-1.486-.88-2.686.35-3.885z" fill="#E8E8E8"/><path fill-rule="evenodd" clip-rule="evenodd" d="M1277.57 448.111c8.49-1.822 16.41-4.715 23.33-8.527 8.09-5.241 13.78-11.96 16.38-19.348 2.49-6.457 7-12.471 13.24-17.628 1.8 1.2 1.31 2.608.5 3.938-.33.329-.48.725-.42 1.121-.65.615-1.11 1.314-1.36 2.053a3.92 3.92 0 00-.06 2.25c.23 9.308-.54 18.616-2.31 27.848-1.3 8.025-6.74 15.477-15.34 21.044-6.97 4.777-14.99 8.796-23.76 11.916-8.83 2.521-17.34 5.539-25.44 9.022a28.755 28.755 0 01-6.25 1.434c0-2.216 2.42-3.415 4.49-4.667 5.93-3.229 10.57-7.418 13.5-12.184 2.93-4.765 4.05-9.954 3.27-15.091a12.61 12.61 0 01.23-3.181z" fill="#87B6BE"/><path fill-rule="evenodd" clip-rule="evenodd" d="M1331.1 406.545c0-1.303-.35-2.607-.5-3.937l.92-2.321c.97.924 1.46 2.044 1.38 3.179-.07 1.135-.71 2.22-1.8 3.079z" fill="#E5BF43"/><path fill-rule="evenodd" clip-rule="evenodd" d="M872.277 319.427c.538-.182 1.382-.574 1.612-.469 12.471 7.301 27.398 6.466 41.787 5.006 23.676-2.373 43.4-10.821 61.895-20.626 11.333-5.964 22.123-12.39 32.309-19.244 11.51-7.822 25.59-8.813 40.83-7.066 15.23 1.747 27.55 7.823 39.45 13.977 17.8 9.1 35.11 18.644 55.64 24.98 1.84.574 6.6.287 4.68 3.494-6.64-2.086-13.28-4.224-19.96-6.284-21.7-6.827-42.42-15.015-61.89-24.459-19.19-9.153-41.48-6.91-57.56 3.442-10.89 7.597-22.569 14.648-34.957 21.095-21.297 10.222-44.359 17.888-71.526 17.888-9.313.182-18.447-1.765-25.94-5.528-1.656-.662-3.083-1.559-4.182-2.63-1.099-1.071-1.846-2.291-2.188-3.576zM927.956 487.25c.729 5.372-3.838 9.465-7.675 13.638-9.637 9.906-21.94 18.487-36.262 25.293-13.723 6.915-28.744 12.554-44.665 16.767-8.173 2.406-17.117 3.349-25.978 2.738 0-2.608 3.185-3.051 5.756-3.521 21.291-4.453 41.047-11.768 58.095-21.512 15.618-8.422 31.197-17.08 41.634-29.022.904-.881 1.459-1.905 1.612-2.973l7.483-1.408zM732.563 510.64c.653-1.695 2.802-2.217 4.797-2.895 24.526-8.729 47.671-19.144 69.07-31.082 1.458-.782 3.032-1.512 4.528-2.294l9.248-1.278c-5.527 7.552-13.927 13.963-24.328 18.566-17.153 8.553-34.765 16.48-55.563 20.573-3.569.731-5.833.6-7.752-1.59z" fill="#C07C5C"/></svg><svg fill="none" viewBox="0 0 88 88" id="email" xmlns="http://www.w3.org/2000/svg"><path d="M79.03 14.666a4.88 4.88 0 00-1.003 0H9.583a4.887 4.887 0 00-1.296.196L43.61 50.037l35.42-35.37z" fill="#FFC158"/><path d="M82.647 18.064L47.055 53.51a4.889 4.889 0 01-6.893 0L4.89 18.333a4.89 4.89 0 00-.171 1.223v48.888a4.889 4.889 0 004.889 4.89H78.05a4.89 4.89 0 004.889-4.89V19.556a4.89 4.89 0 00-.293-1.492zm-69.691 50.38H9.558V64.95l17.77-17.625 3.448 3.447-17.82 17.673zm65.046 0H74.58L56.76 50.771l3.447-3.447 17.77 17.625.025 3.495z" fill="#FFC158"/></svg><svg preserveAspectRatio="none" fill="none" viewBox="0 0 1920 494" id="faq-bg" xmlns="http://www.w3.org/2000/svg"><path d="M1379.44 409.659C1616.48 342.185 1838.58 437.772 1920 494V0H0v308c241.852-297.6 450.469-184 524.546-90 294.707 241.6 692.724 228.439 854.894 191.659z" fill="#FFC158"/></svg><svg fill="none" viewBox="0 0 48 48" id="fb" xmlns="http://www.w3.org/2000/svg"><path fill-rule="evenodd" clip-rule="evenodd" d="M0 24.134C0 36.066 8.666 45.988 20 48V30.666h-6V24h6v-5.334c0-6 3.866-9.332 9.334-9.332 1.732 0 3.6.266 5.332.532V16H31.6c-2.934 0-3.6 1.466-3.6 3.334V24h6.4l-1.066 6.666H28V48c11.334-2.012 20-11.932 20-23.866C48 10.86 37.2 0 24 0S0 10.86 0 24.134z" fill="#FFC158"/></svg><svg preserveAspectRatio="none" fill="none" viewBox="0 0 1918 416" id="footer-bg" xmlns="http://www.w3.org/2000/svg"><path d="M934 152.306C653.354 112.235 204.667 1.479-2 28v388h1920V0c-222.67 95.475-720 190-984 152.306z" fill="#FFC158"/></svg><svg preserveAspectRatio="none" fill="none" viewBox="0 0 1920 1417" id="home-hero-bg" xmlns="http://www.w3.org/2000/svg"><path d="M6 1279V0h1914v258.975l-262-31.752c-171.72 8.852-336 47.628-404 166.697-75.86 132.839-181.58 628.09-604 538.613C262 850.351 78 1182.76 6 1279z" fill="#FFC158" stroke="#FFC158" stroke-width="10"/><g filter="url(#hfilter0_d_835:8)"><path d="M1242 392c131.2-265.19 514.67-168.626 684-148v36c-120 42.725-368.8 83.919-404 260.712C1478 761.704 1262 1039.98 766 956c-396.8-67.182-656 48-768 451v-375.69c144-79.553 360-198.889 560-207.728 200-8.84 520-100.095 684-431.582z" fill="#FFD998"/><path d="M1242 392c131.2-265.19 514.67-168.626 684-148v36c-120 42.725-368.8 83.919-404 260.712C1478 761.704 1262 1039.98 766 956c-396.8-67.182-656 48-768 451v-375.69h0c144-79.553 360-198.889 560-207.728 200-8.84 520-100.095 684-431.582z" stroke="#FFD998" stroke-width="10"/></g><defs><filter id="hfilter0_d_835:8" x="-11" y="204.908" width="1946" height="1211.43" filterUnits="userSpaceOnUse" color-interpolation-filters="sRGB"><feFlood flood-opacity="0" result="BackgroundImageFix"/><feColorMatrix in="SourceAlpha" values="0 0 0 0 0 0 0 0 0 0 0 0 0 0 0 0 0 0 127 0" result="hardAlpha"/><feOffset dy="4"/><feGaussianBlur stdDeviation="2"/><feColorMatrix values="0 0 0 0 1 0 0 0 0 1 0 0 0 0 1 0 0 0 0.25 0"/><feBlend in2="BackgroundImageFix" result="effect1_dropShadow_835:8"/><feBlend in="SourceGraphic" in2="effect1_dropShadow_835:8" result="shape"/></filter></defs></svg><svg fill="none" viewBox="0 0 50 50" id="instagram" xmlns="http://www.w3.org/2000/svg"><path d="M25 16.93c-4.444 0-8.07 3.626-8.07 8.07 0 4.444 3.626 8.071 8.07 8.071 4.444 0 8.07-3.627 8.07-8.07 0-4.445-3.626-8.072-8.07-8.072zM49.207 25c0-3.342.03-6.654-.158-9.99-.187-3.875-1.071-7.314-3.905-10.148-2.84-2.84-6.273-3.717-10.148-3.905C31.654.77 28.342.8 25.006.8c-3.342 0-6.654-.03-9.99.157-3.875.188-7.314 1.072-10.148 3.905-2.84 2.84-3.717 6.273-3.905 10.148C.775 18.352.806 21.664.806 25c0 3.336-.03 6.654.157 9.99.188 3.875 1.072 7.314 3.905 10.148 2.84 2.84 6.273 3.718 10.148 3.905 3.342.188 6.654.158 9.99.158 3.342 0 6.654.03 9.99-.158 3.875-.187 7.314-1.071 10.148-3.905 2.84-2.84 3.718-6.273 3.905-10.148.194-3.336.158-6.648.158-9.99zM25 37.418A12.4 12.4 0 0112.582 25 12.4 12.4 0 0125 12.582 12.4 12.4 0 0137.418 25 12.4 12.4 0 0125 37.418zm12.927-22.444a2.897 2.897 0 01-2.9-2.9c0-1.605 1.295-2.9 2.9-2.9 1.604 0 2.9 1.295 2.9 2.9a2.896 2.896 0 01-2.9 2.9z" fill="#FFC158"/></svg><svg preserveAspectRatio="none" fill="none" viewBox="0 0 374 191" id="mobile-bottom-bg" xmlns="http://www.w3.org/2000/svg"><path d="M268.969 32.61C315.027 58.698 358.18 21.74 374 0v191H0V45.594C109.6 169.805 152.884 147.7 160.826 121.122c16.857-40.374 62.085-114.6 108.143-88.512z" fill="#FFC158"/></svg><svg viewBox="0 0 375 238" preserveAspectRatio="none" fill="none" id="mobile-top-bg" xmlns="http://www.w3.org/2000/svg"><path d="M269.969 128.537C316.027 107.366 359.18 220.358 375 238V0H0c12.707 16.382 25.278 59.122 62 44s68.367 25.878 79 41c16.857 32.764 82.911 64.707 128.969 43.537z" fill="#FFC158"/></svg><svg preserveAspectRatio="none" fill="none" viewBox="0 0 1920 426" id="projects-bg" xmlns="http://www.w3.org/2000/svg"><path d="M1380.56 409.419c236.56-67.434 458.19-141.803 539.44-85.608V0H0v139.918s301.568 81.416 447.534 40.708 218.966-40.708 327.659 35.248c103.891 107.937 368.817 260.979 605.367 193.545z" fill="#FFC158"/></svg><svg preserveAspectRatio="none" fill="none" viewBox="0 0 1920 536" id="regulations-bg" xmlns="http://www.w3.org/2000/svg"><path d="M537.759 333.704C301.942 278.741 80.996 356.605 0 402.407V0h1920v536c-23.24-44.531-112.73-162.918-284.81-280.219-172.09-117.301-320-66.253-372.45-26.067-86.31 85.062-489.163 158.953-724.981 103.99z" fill="#FFC158"/></svg><svg preserveAspectRatio="none" fill="none" viewBox="0 0 667 649" id="step-line" xmlns="http://www.w3.org/2000/svg"><path d="M56.884 648.183c-.276-25.777-.662-114.057 0-125.967.661-11.91 28.386-12.957 42.166-11.992h530.801c27.119 0 32.245-10.477 31.419-15.715.551-125.712 1.322-381.273 0-397.815-1.323-16.54-25.907-18.47-38.033-17.368-375.364 0-556.738.996-599.023 0-6.164.478-18.593-2.069-18.993-16.073-.4-14.004-.167-47.677 0-62.763" stroke="#FFD998" stroke-opacity=".51" stroke-width="10"/></svg><svg preserveAspectRatio="none" fill="none" viewBox="0 0 725 888" id="step-section-bg" xmlns="http://www.w3.org/2000/svg"><path d="M384.429 377.539C442.312 144 537.54 29.727 725-.001V740c-51.2-96-209.792-8.641-282.688 47.039C51.89 1086.86-31.508 638.101 10.33 464.177 52.17 290.253 310.39 676.267 384.43 377.539z" fill="#FFD998"/></svg><svg preserveAspectRatio="none" fill="none" viewBox="0 0 1920 494" id="what-bg" xmlns="http://www.w3.org/2000/svg"><path d="M404 246C167.2 178.527 81.333 437.772 0 494V0h1920c-65.33 52.211-187.2 272.195-376 224-188.8-48.195-380-76.362-448-43.268C966 244 640.8 313.473 404 246z" fill="#FFC158"/></svg><svg preserveAspectRatio="none" fill="none" viewBox="0 0 1920 1672" id="who-bg" xmlns="http://www.w3.org/2000/svg"><path d="M695 469.988C250.2 491.913 47 738.562 1 859.146v702.964c404 9.14 292.411 49.38 926 21.93 506-21.93 806-188.04 994 10.96V2.268c-236-20.097-340 96.833-442 213.763s-228 226.552-784 253.957z" fill="#FFD998"/><path d="M694 788.383C249.2 799.503 46 924.606 0 985.768v356.552c404 4.63 291.816 11.12 926 11.12 646 0 848 5.56 994 5.56V551.15c-236-10.193-340 49.115-442 108.423s-228 114.91-784 128.81z" fill="#FFC158"/><path d="M676 1419.5c-251.2-45.1-555.333-21.47-676-4.03V1343l1920 3.45v58.67c-323.2-81.45-589.33-41.61-682-11.5-82.67 27.41-310.8 70.97-562 25.88z" fill="#FFC158"/><path d="M677 1635.44c-251.2-84.56-555.333-40.27-676-7.55V1492l1920 6.47v110c-323.2-152.71-589.33-78-682-21.57-82.67 51.41-310.8 133.09-562 48.54z" fill="#FFD998"/></svg></svg>